PathFileType	4	(X/Y/Z)	D:\luciana\vassoio.trc
DataRate	CameraRate	NumFrames	NumMarkers	Units	OrigDataRate	OrigDataStartFrame	OrigNumFrames
250.00	250.00	8	20	mm	250.00	461	2051
Frame#	Time	pelvisR			Trunk1			Trunk2			Trunk3			C7			shoulder			upperArm1			upperArm2			upperArm3			elbow			forearm1			forearm2			forearm3			wrist1			wrist2			wrist3			Object1			Hand			Object2			Object3			
		X1	Y1	Z1	X2	Y2	Z2	X3	Y3	Z3	X4	Y4	Z4	X5	Y5	Z5	X6	Y6	Z6	X7	Y7	Z7	X8	Y8	Z8	X9	Y9	Z9	X10	Y10	Z10	X11	Y11	Z11	X12	Y12	Z12	X13	Y13	Z13	X14	Y14	Z14	X15	Y15	Z15	X16	Y16	Z16	X17	Y17	Z17	X18	Y18	Z18	X19	Y19	Z19	X20	Y20	Z20	

460	1.840000	1707.205653	666.166067	733.757973	1484.697461	869.001806	639.896750	1546.307087	815.602779	636.424482	1456.480622	777.836740	635.681629	1550.644636	1131.357193	820.937932	1723.970890	1051.708460	766.700923	1801.360846	876.742840	856.917322	1851.112723	888.363242	801.994681	1799.905300	887.813032	733.491600	1836.620569	753.969312	774.824798	1879.173517	699.295163	715.989053	1824.942827	658.430576	761.215031	1836.789131	753.286481	684.797049	1850.035906	677.507043	574.482918	1829.277635	609.307647	609.383345	1786.863685	717.949331	574.202597	1557.826042	585.056245	481.418341	1824.559331	612.506866	504.092932	1637.884617	559.406102	394.238204	1494.835854	558.525860	394.696295	
461	1.844000	1707.207799	666.162610	733.770847	1484.700918	869.045675	639.931798	1546.305656	815.636754	636.435151	1456.502795	777.885199	635.674655	1550.671816	1131.343842	821.005642	1723.997355	1051.711202	766.770482	1801.380515	876.755297	857.010126	1851.137996	888.379216	802.108169	1799.975157	887.827635	733.569384	1836.696506	753.997624	774.897575	1879.236698	699.383795	715.997815	1825.467229	658.112884	761.407733	1836.847425	753.420711	684.860408	1850.068569	677.759409	574.488997	1829.255581	609.489739	609.325647	1786.900043	718.220294	574.251592	1557.807565	585.372388	481.398135	1824.533105	612.816572	504.039645	1638.115644	559.897542	394.118160	1494.894266	558.921278	394.664735	
462	1.848000	1707.211733	666.146755	733.765244	1484.681606	869.086325	639.978945	1546.304226	815.675139	636.450708	1456.509709	777.933359	635.682523	1550.691605	1131.331921	821.071148	1724.030018	1051.698327	766.837716	1801.403522	876.763165	857.102096	1851.171494	888.401449	802.213967	1800.055265	887.837887	733.668029	1836.771369	754.036546	774.967194	1879.302979	699.470878	716.005683	1824.957848	658.667445	761.103749	1836.911678	753.553092	684.943795	1850.104690	678.004861	574.485958	1829.238892	609.673858	609.269142	1786.943436	718.490601	574.308515	1557.779551	585.711300	481.377423	1824.524760	613.136351	503.991604	1638.142347	560.309827	394.048989	1494.890690	559.306383	394.653618	
463	1.852000	1707.212090	666.151822	733.773351	1484.676361	869.127631	640.027642	1546.304703	815.725803	636.451542	1456.516981	777.980983	635.682821	1550.722599	1131.344557	821.151257	1724.056721	1051.697731	766.907692	1801.433325	876.778960	857.204199	1851.208329	888.423145	802.318692	1800.145745	887.858987	733.771861	1836.850047	754.073143	775.036037	1879.363298	699.564219	716.013193	1824.886560	658.848703	761.010170	1836.984277	753.673553	685.020089	1850.143194	678.245425	574.477792	1829.215527	609.856963	609.211981	1787.014365	718.777418	574.364364	1557.743788	586.055279	481.366485	1824.518085	613.451779	503.936470	1638.332844	560.794353	393.827677	1494.869471	559.698343	394.626290	
464	1.856000	1707.221270	666.154444	733.782768	1484.709978	869.163990	640.076041	1546.325564	815.774798	636.454701	1456.518173	778.044760	635.676742	1550.746918	1131.356001	821.237743	1724.097490	1051.704049	766.981602	1801.465631	876.794279	857.307076	1851.248145	888.451576	802.432775	1800.227880	887.883425	733.860552	1836.935163	754.111767	775.110126	1879.421234	699.644148	716.022849	1824.921370	658.941031	760.972500	1837.060809	753.804684	685.100436	1850.179672	678.490400	574.465156	1829.204559	610.035300	609.147072	1787.095666	719.080448	574.421823	1557.716727	586.422205	481.327683	1824.512243	613.792360	503.866613	1638.572216	561.309814	393.585563	1494.757891	560.100079	394.601882	
465	1.860000	1707.239389	666.154504	733.785927	1484.769583	869.214833	640.113175	1546.337366	815.819204	636.462688	1456.532240	778.106987	635.668874	1550.791979	1131.354213	821.307659	1724.134088	1051.696777	767.059803	1801.491976	876.806915	857.396185	1851.277232	888.476491	802.538455	1800.314903	887.896895	733.941615	1837.010026	754.147708	775.175393	1879.492760	699.714482	716.036260	1824.970841	658.999801	760.938168	1837.130308	753.929377	685.171127	1850.214005	678.743482	574.459076	1829.209805	610.249460	609.077096	1787.171483	719.390869	574.488401	1557.685137	586.786270	481.296211	1824.496984	614.134789	503.812790	1637.899637	561.460614	393.877625	1494.680405	560.489416	394.591331	
466	1.864000	1707.254410	666.163445	733.783841	1484.820843	869.272590	640.151322	1546.352983	815.863550	636.475742	1456.559539	778.174520	635.663867	1550.822020	1131.356597	821.373224	1724.169254	1051.701188	767.125726	1801.533341	876.822174	857.493699	1851.329088	888.504744	802.647829	1800.395012	887.923658	734.019637	1837.099195	754.182518	775.263667	1879.560471	699.799418	716.056466	1825.038433	659.043789	760.914207	1837.222815	754.058361	685.246170	1850.255013	679.004312	574.464798	1829.191804	610.513866	609.028041	1787.253499	719.690502	574.544787	1557.667613	587.162971	481.268108	1824.480772	614.456236	503.769398	1637.189150	561.558902	394.105017	1494.610667	560.865700	394.549966	
467	1.868000	1707.247138	666.160107	733.774781	1484.837532	869.318426	640.213251	1546.366572	815.922439	636.484325	1456.576943	778.237522	635.667086	1550.861716	1131.367803	821.461439	1724.202871	1051.697493	767.206430	1801.560640	876.832128	857.597470	1851.376534	888.533175	802.764118	1800.475478	887.941837	734.116137	1837.195158	754.222929	775.354683	1879.635930	699.877441	716.068268	1825.096369	659.101248	760.903955	1837.310791	754.185855	685.326219	1850.292802	679.262638	574.469805	1829.189301	610.768437	608.941853	1787.328482	720.002770	574.599862	1557.651758	587.576628	481.223792	1824.476719	614.804804	503.694236	1637.194872	562.031865	394.053370	1494.550705	561.268091	394.508868	
